<?xml version="1.0" standalone="no"?>
<!DOCTYPE svg PUBLIC "-//W3C//DTD SVG 20010904//EN"
 "http://www.w3.org/TR/2001/REC-SVG-20010904/DTD/svg10.dtd">
<svg version="1.0" xmlns="http://www.w3.org/2000/svg"
 width="607.000000pt" height="607.000000pt" viewBox="0 0 607.000000 607.000000"
 preserveAspectRatio="xMidYMid meet">
<metadata>
Created by potrace 1.14, written by Peter Selinger 2001-2017
</metadata>
<g transform="translate(0.000000,607.000000) scale(0.100000,-0.100000)"
fill="#000000" stroke="none">
<path d="M615 4739 c-19 -9 -36 -15 -38 -13 -8 9 -75 -66 -92 -103 -17 -35
-18 -90 -18 -810 0 -425 2 -775 5 -778 3 -3 23 1 45 9 23 8 64 17 92 21 28 3
64 10 81 15 17 5 32 5 35 -1 4 -5 4 -9 2 -9 -3 0 5 -37 17 -82 12 -46 21 -92
20 -104 -3 -40 -37 -81 -88 -107 -58 -29 -95 -28 -160 5 -24 12 -41 16 -45 10
-3 -6 -5 -116 -5 -244 2 -216 4 -238 23 -275 26 -51 89 -106 140 -121 28 -9
350 -12 1210 -12 644 0 1171 3 1171 6 0 4 -9 59 -19 123 -11 64 -22 134 -26
156 -3 22 -7 47 -10 55 -4 15 -7 34 -26 165 -15 103 -17 117 -35 295 -3 36 -8
74 -10 85 -2 11 -7 40 -10 65 -3 25 -7 56 -10 70 -2 14 -6 45 -9 70 -3 25 -8
56 -10 70 -6 30 -16 105 -39 287 -2 16 -7 44 -10 63 -3 19 -8 51 -10 70 -3 19
-10 72 -16 117 -6 46 -13 97 -15 115 -2 18 -7 51 -10 73 -4 22 -8 51 -10 65
-3 14 -7 48 -10 75 -3 28 -7 59 -9 70 -2 11 -9 56 -15 100 -17 118 -18 122
-35 225 -25 143 -37 190 -49 191 -45 4 -53 2 -64 -18 -6 -12 -14 -37 -18 -55
-21 -101 -79 -367 -100 -458 -13 -58 -26 -127 -29 -155 -3 -27 -7 -59 -9 -70
-3 -11 -8 -38 -12 -60 -12 -64 -14 -77 -25 -130 -6 -27 -13 -61 -15 -75 -3
-14 -10 -50 -16 -80 -6 -30 -12 -66 -15 -80 -3 -14 -11 -59 -19 -100 -8 -41
-24 -124 -36 -184 -11 -60 -23 -121 -25 -135 -9 -52 -46 -248 -64 -341 -10
-52 -22 -122 -25 -155 -3 -32 -12 -69 -20 -81 -29 -45 -124 -34 -151 18 -18
34 -43 115 -49 156 -2 15 -8 50 -14 78 -5 28 -12 81 -16 119 -3 37 -16 129
-30 204 -13 75 -27 150 -29 166 -3 17 -8 41 -11 55 -3 14 -7 41 -11 60 -3 19
-9 55 -14 80 -5 25 -11 59 -14 75 -2 17 -16 93 -30 170 -73 384 -91 448 -128
460 -22 8 -78 -17 -104 -46 -19 -21 -91 -123 -119 -167 -5 -8 -66 -99 -133
-201 -117 -176 -124 -188 -118 -226 3 -22 12 -54 20 -71 9 -16 17 -45 18 -64
3 -31 -1 -37 -41 -59 -35 -19 -59 -24 -121 -25 -87 -1 -104 8 -128 64 -14 34
-25 209 -14 238 3 9 19 11 61 6 105 -13 101 -14 143 51 21 33 42 69 47 81 9
21 136 191 156 209 19 17 81 99 94 124 26 48 122 148 176 182 106 67 223 -58
249 -266 3 -22 14 -92 25 -155 12 -63 23 -131 26 -150 3 -20 8 -47 10 -60 3
-14 7 -45 10 -70 3 -25 8 -58 10 -75 10 -83 18 -142 21 -160 3 -11 13 -72 24
-135 10 -63 33 -194 50 -290 17 -96 34 -191 37 -210 15 -89 46 -87 63 3 6 34
18 96 26 137 7 41 16 86 19 100 3 14 7 48 10 75 7 72 15 124 25 170 5 22 11
54 14 70 3 17 15 80 26 140 12 61 30 160 41 220 12 61 22 115 23 120 4 14 15
75 20 105 2 14 27 147 54 295 28 149 53 293 57 320 9 81 16 126 30 193 11 56
11 62 -4 63 -9 1 -413 2 -899 3 -800 1 -887 -1 -917 -15z m269 -1350 l6 -37
-65 -1 c-65 -1 -78 7 -52 33 7 8 28 32 47 55 l34 41 11 -28 c7 -15 15 -43 19
-63z m3 -84 c27 -19 40 -58 37 -120 -1 -27 -2 -53 -3 -58 -1 -10 -127 0 -151
13 -20 11 -37 53 -44 112 l-5 37 62 15 c80 19 79 19 104 1z m182 -45 c-11 -19
-75 -90 -82 -90 -3 0 -8 19 -11 43 -4 23 -9 56 -12 73 l-5 31 60 -21 c48 -16
58 -23 50 -36z m-380 -71 c8 -28 9 -54 5 -59 -13 -11 -173 -52 -186 -48 -7 3
6 20 27 39 22 19 60 53 85 76 25 24 48 43 51 43 3 0 11 -23 18 -51z m199 -124
c8 -7 -69 -135 -80 -135 -6 0 -9 2 -6 5 3 3 -1 31 -8 63 -21 87 -22 86 38 78
29 -4 54 -9 56 -11z"/>
<path d="M2726 4752 c-15 -3 -16 -11 -11 -50 3 -25 8 -48 9 -51 2 -3 7 -34 10
-69 4 -34 11 -84 16 -110 4 -26 11 -74 15 -107 3 -33 8 -67 10 -75 3 -8 16
-96 30 -195 14 -99 28 -191 30 -205 2 -14 6 -43 10 -65 3 -22 10 -65 15 -95 5
-30 11 -75 14 -100 4 -25 8 -56 10 -70 10 -56 15 -99 21 -175 4 -44 8 -87 10
-95 2 -8 7 -35 10 -60 3 -25 8 -56 10 -70 3 -14 7 -45 10 -70 3 -25 7 -56 10
-70 3 -14 12 -70 20 -125 21 -143 23 -154 51 -315 21 -124 63 -341 79 -417 5
-20 12 -23 55 -23 28 0 50 4 50 8 0 4 18 104 40 222 21 118 42 231 45 250 8
51 17 102 22 125 2 11 15 85 29 165 14 80 29 163 34 185 5 22 12 63 16 90 3
28 8 52 9 55 2 3 6 37 10 75 4 39 15 113 25 165 11 52 35 181 55 285 77 407
106 524 146 586 16 26 36 49 43 52 24 10 67 -6 83 -30 15 -22 48 -146 59 -223
3 -19 14 -78 24 -130 11 -52 21 -106 24 -120 2 -14 13 -77 25 -140 11 -63 23
-137 26 -165 5 -45 18 -126 31 -195 3 -14 9 -47 14 -75 5 -27 16 -86 25 -129
8 -44 17 -92 20 -107 3 -15 17 -76 31 -135 14 -59 27 -114 30 -123 27 -116 41
-154 57 -157 20 -3 24 3 55 76 45 106 205 649 232 785 50 256 117 425 188 471
25 16 26 16 46 -8 76 -91 92 -119 137 -240 38 -105 85 -205 112 -243 12 -16
31 -47 41 -68 39 -76 113 -134 182 -142 62 -8 165 58 319 206 55 53 96 89 101
89 4 0 -11 -27 -68 -125 -20 -33 -39 -71 -43 -85 -4 -14 -12 -31 -17 -37 -15
-18 -15 -19 115 46 65 32 120 54 123 49 8 -13 -5 -26 -114 -108 -56 -41 -99
-77 -97 -79 3 -2 55 -4 117 -5 l113 -1 -1 665 0 665 -29 53 c-35 65 -47 75
-115 98 -52 17 -129 18 -1421 18 -751 1 -1373 -1 -1383 -2z"/>
<path d="M3693 4282 c-13 -2 -23 -11 -24 -20 0 -9 -2 -24 -4 -32 -1 -8 -6 -33
-9 -55 -4 -22 -13 -64 -21 -95 -24 -94 -108 -548 -121 -650 -2 -19 -6 -46 -9
-60 -5 -29 -6 -33 -39 -248 -14 -89 -28 -175 -30 -190 -12 -74 -17 -112 -21
-167 -3 -33 -7 -71 -10 -85 -16 -92 -60 -313 -80 -406 -14 -61 -25 -116 -25
-123 0 -8 287 -11 1093 -11 l1092 0 50 24 c52 24 93 64 122 120 14 27 16 86
17 476 l1 445 -210 -1 c-426 -3 -532 40 -645 262 -44 89 -150 347 -150 369 0
7 -9 35 -21 62 -15 36 -23 44 -29 33 -25 -47 -177 -583 -196 -695 -14 -86
-105 -408 -124 -443 -5 -9 -22 -46 -39 -82 -36 -78 -90 -135 -119 -126 -48 16
-116 101 -136 172 -18 63 -74 372 -80 444 -3 30 -12 89 -20 130 -18 92 -54
284 -60 325 -14 84 -126 630 -129 630 -1 1 -12 -1 -24 -3z"/>
<path d="M737 2028 c-85 -18 -163 -85 -203 -173 -39 -84 -32 -202 14 -265 76
-101 148 -143 252 -144 52 0 77 5 122 27 65 32 65 37 10 105 -31 39 -36 42
-51 28 -16 -14 -59 -21 -120 -17 -13 0 -40 18 -61 39 -42 42 -57 89 -46 147 7
37 54 91 91 105 28 11 108 5 133 -11 18 -11 23 -10 41 12 11 13 29 41 41 61
l20 36 -55 27 c-59 29 -125 37 -188 23z"/>
<path d="M2180 2033 c-226 -67 -313 -325 -162 -485 95 -100 230 -131 339 -77
61 30 65 53 20 107 -33 40 -35 40 -62 26 -54 -28 -144 -20 -173 15 -31 38 -51
97 -46 136 7 55 44 108 88 125 40 15 77 12 119 -9 l37 -19 29 37 c32 40 46 80
34 96 -24 32 -171 63 -223 48z"/>
<path d="M2685 2030 c-83 -19 -165 -89 -206 -175 -32 -66 -36 -121 -16 -196
41 -157 232 -254 385 -197 54 20 140 95 165 145 20 37 34 119 29 162 -10 94
-92 204 -179 243 -48 21 -129 30 -178 18z m118 -154 c84 -36 118 -126 78 -208
-26 -54 -68 -80 -132 -81 -61 0 -91 15 -117 62 -38 68 -33 135 14 194 37 46
97 59 157 33z"/>
<path d="M5340 2028 c-144 -41 -168 -203 -42 -284 26 -17 63 -36 82 -44 67
-25 100 -50 100 -75 0 -52 -92 -59 -155 -11 -43 33 -53 32 -89 -4 -16 -17 -33
-30 -38 -30 -38 0 38 -75 109 -107 122 -56 260 -19 314 84 40 75 22 156 -45
201 -33 22 -122 60 -160 68 -49 9 -63 58 -20 74 38 15 47 13 95 -20 l44 -29
43 41 c23 23 42 48 42 55 0 18 -59 59 -113 77 -53 18 -114 19 -167 4z"/>
<path d="M1082 2013 c-6 -14 -9 -478 -3 -550 1 -19 130 -18 137 1 3 7 6 60 7
117 l2 104 92 3 92 3 3 -118 3 -118 54 -3 c106 -6 97 -33 97 288 0 321 9 294
-97 288 l-54 -3 -3 -101 -3 -100 -93 0 -94 0 0 93 c-1 52 -4 98 -7 103 -3 6
-33 10 -65 10 -47 0 -61 -4 -68 -17z"/>
<path d="M1695 2017 c-3 -7 -4 -136 -3 -287 l3 -275 73 -3 c39 -2 73 1 73 5 7
36 4 542 -3 556 -7 13 -22 17 -74 17 -43 0 -66 -4 -69 -13z"/>
<path d="M3081 2009 c-4 -12 -6 -36 -5 -53 1 -17 3 -39 3 -48 1 -14 13 -18 73
-20 l73 -3 1 -210 c1 -115 2 -213 3 -217 1 -9 113 -11 135 -2 14 5 16 34 16
220 l0 213 72 3 73 3 1 55 c1 30 -3 61 -8 68 -8 9 -64 12 -220 12 -204 0 -209
-1 -217 -21z"/>
<path d="M3683 2018 c-6 -7 -14 -29 -18 -48 -4 -19 -25 -78 -47 -130 -22 -52
-54 -131 -70 -175 -16 -43 -33 -84 -37 -90 -16 -21 -42 -105 -36 -115 3 -5 35
-10 71 -10 l65 0 22 49 22 49 101 0 101 0 12 -38 c16 -53 30 -62 98 -58 71 4
71 6 12 143 -22 53 -49 124 -59 158 -10 34 -38 109 -62 167 l-43 105 -61 3
c-41 2 -64 -1 -71 -10z m95 -255 c33 -102 34 -97 -26 -98 -30 0 -56 3 -58 7
-2 3 5 30 17 60 11 29 20 55 20 58 -2 12 11 40 18 40 4 0 17 -30 29 -67z"/>
<path d="M4109 2019 c-4 -42 -4 -537 -1 -553 5 -17 14 -18 141 -14 157 5 200
20 277 96 135 136 89 361 -94 453 -41 20 -65 24 -184 27 -111 3 -138 2 -139
-9z m272 -155 c64 -33 86 -118 51 -198 -16 -34 -30 -50 -54 -60 -29 -13 -80
-20 -115 -17 -10 1 -13 37 -13 144 0 79 2 146 5 149 10 10 97 -2 126 -18z"/>
<path d="M4835 2022 c-12 -8 -154 -359 -161 -396 -2 -12 -17 -55 -33 -94 l-30
-72 23 -6 c12 -3 44 -4 71 -2 49 3 50 4 66 48 l17 45 103 0 103 0 15 -40 c8
-22 20 -43 25 -47 16 -11 134 -10 140 1 6 8 -4 36 -44 126 -9 22 -32 78 -49
125 -17 47 -36 93 -42 104 -6 10 -27 60 -46 110 -19 50 -40 94 -47 98 -6 4
-31 8 -56 8 -25 0 -50 -4 -55 -8z m76 -219 c24 -61 36 -124 26 -130 -15 -9
-97 -11 -97 -2 0 9 41 142 47 152 7 12 13 8 24 -20z"/>
</g>
</svg>
