<?xml version="1.0" standalone="no"?>
<!DOCTYPE svg PUBLIC "-//W3C//DTD SVG 20010904//EN"
 "http://www.w3.org/TR/2001/REC-SVG-20010904/DTD/svg10.dtd">
<svg version="1.0" xmlns="http://www.w3.org/2000/svg"
 width="607.000000pt" height="411.000000pt" viewBox="0 0 607.000000 411.000000"
 preserveAspectRatio="xMidYMid meet">

<g transform="translate(0.000000,411.000000) scale(0.100000,-0.100000)"
fill="#000000" stroke="none">
<path d="M603 3752 c-54 -22 -91 -57 -114 -107 -18 -38 -19 -83 -19 -817 l0
-778 28 11 c20 8 213 49 229 49 2 0 3 -8 3 -17 0 -10 10 -56 22 -103 22 -85
22 -86 2 -125 -14 -30 -33 -47 -76 -70 -61 -32 -80 -31 -170 9 l-38 16 0 -240
c0 -236 0 -242 25 -290 14 -27 40 -60 58 -74 77 -59 15 -56 1288 -56 l1169 0
-5 28 c-29 159 -88 534 -96 614 -23 214 -204 1532 -240 1743 -36 208 -39 220
-75 223 -26 3 -33 -1 -42 -25 -16 -42 -132 -577 -142 -658 -5 -38 -16 -102
-24 -140 -8 -39 -53 -273 -101 -520 -47 -248 -95 -497 -106 -555 -11 -58 -25
-141 -30 -185 -11 -98 -28 -120 -94 -119 -28 1 -52 8 -65 19 -35 32 -79 198
-95 360 -9 92 -59 383 -164 950 -38 204 -61 289 -85 320 l-23 29 -49 -25 c-45
-22 -60 -41 -190 -234 -78 -115 -163 -244 -188 -285 -52 -83 -53 -99 -15 -185
11 -25 19 -56 17 -68 -7 -50 -122 -88 -223 -73 -40 7 -48 12 -67 49 -17 34
-22 65 -26 155 l-5 114 89 -7 89 -7 50 84 c53 89 139 208 216 298 25 30 58 73
72 96 33 53 124 150 163 175 18 11 49 19 75 19 38 0 48 -5 88 -48 26 -27 54
-69 64 -96 19 -54 99 -513 116 -666 9 -77 114 -705 137 -812 3 -18 12 -28 23
-28 15 0 23 27 49 173 18 94 32 182 32 194 0 20 25 161 124 688 83 442 134
729 151 845 9 63 19 127 22 143 l6 27 -899 -1 c-821 0 -903 -2 -941 -17z m283
-1341 l7 -41 -72 0 c-39 0 -71 3 -71 6 0 3 23 32 52 65 52 59 52 59 65 35 7
-13 15 -42 19 -65z m14 -96 c20 -22 24 -36 24 -98 l1 -72 -29 -3 c-46 -6 -113
7 -136 26 -20 17 -49 126 -37 139 8 7 105 31 133 32 11 1 31 -10 44 -24z m138
-2 c23 -8 42 -17 42 -20 0 -3 -21 -30 -47 -60 l-48 -56 -12 64 c-17 91 -17
103 5 94 9 -4 36 -14 60 -22z m-346 -105 l15 -53 -26 -12 c-42 -19 -170 -47
-178 -39 -4 4 13 24 37 44 25 20 63 54 84 74 22 21 42 38 46 38 4 0 14 -24 22
-52z m167 -114 c17 -4 31 -11 31 -16 0 -17 -74 -138 -81 -130 -6 7 -29 115
-29 139 0 14 29 17 79 7z"/>
<path d="M2715 3738 c25 -143 188 -1273 195 -1348 16 -177 116 -798 181 -1122
10 -53 19 -99 19 -102 0 -3 22 -6 49 -6 l48 0 12 67 c6 38 22 129 35 203 100
555 155 874 161 925 12 103 155 838 180 923 21 69 75 146 106 150 35 4 76 -32
89 -76 16 -58 129 -660 136 -727 11 -106 102 -575 146 -750 37 -146 46 -170
63 -173 35 -5 72 95 200 543 48 167 75 271 100 390 44 207 107 349 171 392 27
17 27 17 61 -22 59 -69 89 -122 123 -217 30 -83 62 -151 138 -291 31 -58 88
-125 126 -148 39 -24 115 -25 159 -3 40 20 104 73 230 188 53 49 99 87 102 84
3 -2 -14 -35 -36 -73 -43 -70 -93 -175 -84 -175 3 0 55 25 116 55 60 31 114
53 119 50 6 -4 10 204 10 562 0 532 -2 571 -19 608 -23 50 -64 87 -119 109
-39 15 -165 16 -1433 16 l-1390 0 6 -32z"/>
<path d="M3676 3288 c-2 -7 -11 -49 -20 -93 -8 -44 -28 -143 -44 -220 -53
-250 -181 -1035 -196 -1199 -7 -74 -62 -369 -95 -509 -12 -48 -21 -92 -21 -97
0 -6 395 -10 1078 -10 1171 0 1134 -2 1208 55 19 14 45 48 59 75 l25 49 0 441
0 440 -203 0 c-243 0 -347 12 -447 52 -61 24 -83 39 -117 81 -52 62 -108 168
-162 307 -23 58 -46 113 -51 122 -5 10 -14 37 -19 60 -6 24 -18 61 -27 83
l-16 40 -29 -80 c-32 -88 -163 -574 -174 -645 -13 -79 -104 -379 -142 -468
-40 -94 -102 -172 -136 -172 -25 0 -99 76 -125 127 -11 21 -29 90 -41 153 -12
63 -28 147 -36 185 -8 39 -17 99 -20 135 -4 36 -18 126 -32 200 -13 74 -35
194 -48 265 -13 72 -38 198 -55 280 -17 83 -40 196 -52 253 -18 86 -24 102
-40 102 -10 0 -20 -6 -22 -12z"/>
<path d="M5551 2365 l-112 -85 116 0 115 0 0 85 c0 47 -2 85 -3 85 -2 0 -54
-38 -116 -85z"/>
<path d="M5355 1051 c-53 -14 -95 -41 -115 -74 -26 -42 -26 -112 0 -155 23
-37 96 -87 153 -104 52 -16 99 -60 90 -85 -10 -26 -23 -33 -69 -33 -29 0 -54
9 -87 31 l-47 31 -47 -38 -46 -38 46 -42 c98 -88 237 -99 335 -26 47 34 72 79
72 130 0 84 -46 132 -165 175 -38 14 -78 28 -87 32 -24 10 -23 52 1 65 35 18
61 12 128 -30 21 -13 25 -12 63 25 22 21 40 42 40 47 0 12 -43 49 -82 69 -42
22 -138 32 -183 20z"/>
<path d="M695 1034 c-93 -34 -185 -169 -185 -271 0 -83 25 -141 88 -205 65
-67 115 -88 209 -88 48 0 76 6 113 25 28 14 50 32 50 40 0 8 -14 31 -32 52
-18 21 -34 40 -35 42 -2 2 -15 -2 -30 -10 -14 -8 -49 -14 -78 -14 -95 1 -151
69 -143 171 5 58 28 93 80 120 36 19 108 18 136 -2 12 -8 26 -12 32 -9 14 9
70 92 70 104 0 6 -22 22 -50 36 -58 29 -158 33 -225 9z"/>
<path d="M1085 1037 c-3 -7 -4 -136 -3 -287 l3 -275 44 -3 c91 -7 91 -7 91
123 l0 115 95 0 95 0 0 -109 c0 -129 3 -133 87 -129 l58 3 0 285 0 285 -58 3
c-82 4 -87 -2 -87 -114 l0 -94 -95 0 -95 0 0 99 c0 112 1 111 -81 111 -31 0
-51 -5 -54 -13z"/>
<path d="M1702 1042 c-9 -7 -12 -71 -10 -288 l3 -279 70 0 70 0 0 285 0 285
-60 3 c-33 1 -66 -2 -73 -6z"/>
<path d="M2110 1020 c-219 -119 -220 -402 -2 -518 49 -26 71 -32 124 -32 68 0
149 22 169 46 15 18 -2 62 -36 94 -23 21 -24 21 -72 4 -88 -31 -165 6 -194 94
-23 68 11 153 75 189 30 18 92 16 133 -4 35 -16 36 -16 54 8 10 13 26 39 35
58 16 34 16 35 -5 53 -32 25 -86 38 -161 38 -53 0 -75 -6 -120 -30z"/>
<path d="M2620 1019 c-72 -39 -105 -72 -135 -134 -72 -147 -20 -298 130 -381
51 -29 70 -34 126 -34 96 0 145 21 211 88 63 64 88 122 88 205 0 104 -93 238
-189 272 -24 8 -73 15 -110 15 -55 0 -76 -6 -121 -31z m200 -128 c76 -40 102
-130 61 -210 -50 -98 -185 -109 -247 -20 -40 58 -40 130 -1 186 15 22 38 45
50 51 35 17 99 14 137 -7z"/>
<path d="M3084 1037 c-3 -8 -4 -39 -2 -68 l3 -54 72 -3 73 -3 2 -217 3 -217
58 -3 c35 -2 64 2 73 9 11 9 14 52 14 220 l0 208 68 3 67 3 0 65 0 65 -213 3
c-174 2 -213 0 -218 -11z"/>
<path d="M3693 1042 c-6 -4 -23 -41 -37 -82 -25 -76 -88 -236 -153 -388 -22
-53 -32 -87 -26 -93 6 -6 39 -9 74 -7 l64 3 16 45 17 45 105 3 105 3 12 -36
c17 -52 35 -65 88 -65 78 0 78 3 27 126 -26 60 -52 132 -60 159 -21 74 -105
279 -118 287 -16 10 -99 10 -114 0z m92 -272 c14 -40 25 -77 25 -82 0 -4 -27
-8 -60 -8 -41 0 -60 4 -60 12 0 30 53 169 61 161 5 -5 20 -42 34 -83z"/>
<path d="M4115 1039 c-3 -8 -4 -138 -3 -289 l3 -275 130 1 c153 0 194 14 274
89 143 134 92 373 -98 458 -59 27 -297 39 -306 16z m260 -150 c43 -21 75 -74
75 -126 0 -98 -53 -153 -147 -153 l-53 0 0 151 0 152 48 -5 c26 -3 60 -11 77
-19z"/>
<path d="M4833 1038 c-13 -18 -153 -366 -153 -382 0 -7 -14 -46 -30 -87 -17
-40 -28 -79 -26 -86 6 -14 103 -18 122 -5 5 4 17 25 25 47 l15 40 105 3 105 3
13 -38 c21 -58 28 -63 93 -63 75 0 80 11 40 103 -17 40 -65 157 -107 262 -42
104 -81 195 -87 202 -14 17 -102 17 -115 1z m90 -243 c8 -27 18 -65 21 -82 l6
-33 -54 0 c-29 0 -55 3 -58 6 -3 3 0 22 7 42 7 20 21 59 30 85 20 55 26 53 48
-18z"/>
</g>
</svg>
